<?xml version="1.0" encoding="UTF-8" standalone="no"?>
<!-- Creator: CorelDRAW -->

<svg
   xmlns:dc="http://purl.org/dc/elements/1.1/"
   xmlns:cc="http://creativecommons.org/ns#"
   xmlns:rdf="http://www.w3.org/1999/02/22-rdf-syntax-ns#"
   xmlns:svg="http://www.w3.org/2000/svg"
   xmlns="http://www.w3.org/2000/svg"
   xmlns:sodipodi="http://sodipodi.sourceforge.net/DTD/sodipodi-0.dtd"
   xmlns:inkscape="http://www.inkscape.org/namespaces/inkscape"
   xml:space="preserve"
   width="72.525291"
   height="72.525291"
   style="fill-rule:evenodd;image-rendering:optimizeQuality;shape-rendering:geometricPrecision;text-rendering:geometricPrecision"
   viewBox="0 0 72.767851 73.272974"
   version="1.1"
   id="svg25"
   sodipodi:docname="IEEE_logo.svg"
   inkscape:version="0.92.2 5c3e80d, 2017-08-06"><metadata
     id="metadata29"><rdf:RDF><cc:Work
         rdf:about=""><dc:format>image/svg+xml</dc:format><dc:type
           rdf:resource="http://purl.org/dc/dcmitype/StillImage" /><dc:title></dc:title></cc:Work></rdf:RDF></metadata><sodipodi:namedview
     pagecolor="#ffffff"
     bordercolor="#666666"
     borderopacity="1"
     objecttolerance="10"
     gridtolerance="10"
     guidetolerance="10"
     inkscape:pageopacity="0"
     inkscape:pageshadow="2"
     inkscape:window-width="1900"
     inkscape:window-height="1120"
     id="namedview27"
     showgrid="false"
     fit-margin-top="0"
     fit-margin-left="0"
     fit-margin-right="0"
     fit-margin-bottom="0"
     inkscape:zoom="7.0379592"
     inkscape:cx="36.223158"
     inkscape:cy="40.170454"
     inkscape:window-x="10"
     inkscape:window-y="40"
     inkscape:window-maximized="0"
     inkscape:current-layer="Layer 1" /><defs
     id="defs4"><style
       type="text/css"
       id="style2"><![CDATA[
    .fil0 {fill:none}
    .fil1 {fill:#0C1C8C}
   ]]></style></defs><g
     id="Layer 1"
     transform="translate(-13.629846,-11.141287)"><g
       id="g4540"
       transform="matrix(0.56191838,0,0,0.56191838,22.280236,20.930565)"><path
         class="fil1"
         d="m 54,12 c 3,3 6,7 8,10 l 7,7 c 7,6 13,11 20,16 v 0 c 1,1 2,2 2,3 0,2 -3,3 -4,4 C 73,62 61,74 51,88 l -1,1 c 0,0 -1,0 -2,0 C 47,88 47,87 46,87 44,83 41,80 39,77 37,76 36,74 35,73 27,64 18,56 9,50 8,49 7,48 8,47 8,46 9,45 10,45 22,37 33,26 42,15 l 5,-8 c 1,0 2,-1 3,0 0,0 1,0 1,1 z m -8,6 c -2,2 -5,4 -7,6 -1,0 -1,1 -1,1 -6,5 -12,11 -16,17 -2,2 -3,3 -4,5 0,2 0,3 1,3 4,6 9,12 15,17 4,4 9,9 14,11 2,1 4,0 5,-1 7,-5 14,-11 20,-18 2,-3 5,-6 7,-10 0,-2 0,-3 -1,-4 C 74,38 69,32 62,26 v 0 c -2,-2 -5,-4 -7,-6 -2,-2 -6,-4 -9,-2 z"
         id="path16"
         inkscape:connector-curvature="0"
         style="fill:#0c6ea7;fill-opacity:1" /><path
         class="fil1"
         d="m 55,22 c 8,7 16,15 22,24 1,1 2,3 1,4 -2,2 -4,5 -6,7 v 0 c -5,6 -10,11 -16,16 -3,1 -5,5 -9,3 -8,-6 -16,-14 -23,-22 -1,-1 -3,-3 -3,-5 -1,-2 1,-4 2,-6 7,-9 16,-17 24,-23 3,-2 6,1 8,2 z m -6,3 -1,3 -3,11 c 0,0 2,0 3,0 v 0 l -1,13 v 0 c 1,0 3,0 4,0 v -1 -12 0 h 3 C 52,34 51,30 49,25 Z M 36,43 c -2,1 -5,2 -5,5 1,2 2,3 4,4 7,3 17,3 26,1 1,-1 4,-2 5,-5 0,-2 -3,-3 -4,-4 v 0 c 0,0 1,0 2,0 v 0 c -3,-1 -6,-2 -8,-2 0,1 1,2 1,3 1,0 2,0 2,0 2,0 4,1 4,3 0,1 -2,2 -3,3 -6,2 -12,2 -19,1 -1,-1 -4,-2 -4,-4 1,-3 4,-3 7,-4 -1,-1 -3,-2 -4,-3 -1,1 -3,1 -4,2 z m 11,12 c 0,4 0,9 -1,13 2,0 4,0 6,0 L 51,56 v -1 c -1,0 -2,0 -4,0 z"
         id="path18"
         inkscape:connector-curvature="0"
         style="fill:#0c6ea7;fill-opacity:1" /><path
         class="fil1"
         d="m 66,82 v -1 h 1 c 0,0 1,0 1,0 0,1 0,1 -1,1 z m 0,1 h 1 l 1,2 h 1 l -1,-2 c 0,0 1,-1 1,-2 0,-1 -1,-1 -2,-1 h -2 v 5 h 1 z m 5,-1 c 0,-2 -2,-4 -4,-4 -2,0 -4,2 -4,4 0,3 2,5 4,5 2,0 4,-2 4,-5 z m -1,0 c 0,2 -1,4 -3,4 v 0 c -2,0 -3,-2 -3,-4 0,-2 1,-3 3,-3 2,0 3,1 3,3 z"
         id="path20"
         inkscape:connector-curvature="0"
         style="fill:#0c6ea7;fill-opacity:1" /></g><circle
       id="path3730"
       cx="49.978817"
       cy="47.777775"
       r="32.847828"
       style="fill:none;stroke:#ff0000;stroke-width:7.57731962;stroke-miterlimit:4;stroke-dasharray:none;stroke-opacity:1" /><path
       style="fill:none;stroke:#ff0000;stroke-width:7.57731962;stroke-miterlimit:4;stroke-dasharray:none;stroke-opacity:1"
       d="M 25.423218,72.047884 75.384629,22.667296"
       id="path4544"
       inkscape:connector-curvature="0"
       sodipodi:nodetypes="cc" /></g></svg>